<svg xmlns="http://www.w3.org/2000/svg" xmlns:xlink="http://www.w3.org/1999/xlink" width="74" zoomAndPan="magnify" viewBox="0 0 55.5 55.499996" height="74" preserveAspectRatio="xMidYMid meet" version="1.0"><defs><clipPath id="c74a76a360"><path d="M 0 0 L 55.003906 0 L 55.003906 55.003906 L 0 55.003906 Z M 0 0 " clip-rule="nonzero"/></clipPath><clipPath id="1bf9e8eef0"><path d="M 39 6 L 53.179688 6 L 53.179688 21 L 39 21 Z M 39 6 " clip-rule="nonzero"/></clipPath><clipPath id="037ce49abb"><path d="M 1.890625 6 L 15 6 L 15 20 L 1.890625 20 Z M 1.890625 6 " clip-rule="nonzero"/></clipPath></defs><g clip-path="url(#c74a76a360)"><path fill="#ffffff" d="M 0 0 L 55.003906 0 L 55.003906 55.003906 L 0 55.003906 Z M 0 0 " fill-opacity="1" fill-rule="nonzero"/><path fill="#ffffff" d="M 0 0 L 55.003906 0 L 55.003906 55.003906 L 0 55.003906 Z M 0 0 " fill-opacity="1" fill-rule="nonzero"/></g><g clip-path="url(#1bf9e8eef0)"><path fill="#6c0082" d="M 52.75 10.929688 L 48.425781 6.601562 C 48.164062 6.34375 47.789062 6.246094 47.429688 6.335938 L 41.523438 7.917969 C 41.171875 8.011719 40.890625 8.289062 40.792969 8.648438 L 39.214844 14.554688 C 39.121094 14.90625 39.21875 15.289062 39.480469 15.546875 L 43.804688 19.875 C 44.066406 20.132812 44.441406 20.234375 44.800781 20.140625 L 50.707031 18.558594 C 51.058594 18.46875 51.335938 18.1875 51.4375 17.828125 L 53.015625 11.925781 C 53.109375 11.566406 53.003906 11.1875 52.75 10.929688 Z M 52.75 10.929688 " fill-opacity="1" fill-rule="nonzero"/></g><path fill="#6c0082" d="M 39.347656 38.726562 C 38.566406 38.726562 37.875 39.136719 37.488281 39.761719 L 37.488281 39.703125 C 37.488281 38.496094 36.503906 37.511719 35.292969 37.511719 C 34.511719 37.511719 33.824219 37.921875 33.433594 38.539062 L 33.433594 38.488281 C 33.433594 37.277344 32.449219 36.292969 31.242188 36.292969 C 30.457031 36.292969 29.769531 36.707031 29.382812 37.324219 L 29.382812 29.949219 C 29.382812 29.359375 29.148438 28.808594 28.734375 28.390625 C 28.316406 27.980469 27.765625 27.75 27.179688 27.75 C 27.179688 27.75 27.175781 27.75 27.175781 27.75 C 25.964844 27.753906 24.988281 28.738281 24.988281 29.941406 L 24.988281 44.3125 C 24.988281 44.441406 24.917969 44.546875 24.800781 44.597656 C 24.6875 44.644531 24.558594 44.621094 24.472656 44.535156 L 22.242188 42.316406 C 21.488281 41.570312 20.308594 41.453125 19.429688 42.050781 C 18.90625 42.402344 18.558594 42.957031 18.46875 43.578125 C 18.378906 44.199219 18.554688 44.835938 18.960938 45.316406 L 24.507812 52.007812 C 26.074219 53.914062 28.390625 55 30.859375 55 L 34.316406 55 C 36.25 55 38.066406 54.25 39.433594 52.882812 C 40.800781 51.515625 41.550781 49.699219 41.550781 47.765625 L 41.550781 40.910156 C 41.539062 39.703125 40.554688 38.726562 39.347656 38.726562 Z M 39.347656 38.726562 " fill-opacity="1" fill-rule="nonzero"/><path fill="#6c0082" d="M 27.152344 24.367188 C 27.652344 24.367188 28.050781 23.960938 28.050781 23.46875 L 28.050781 17.359375 L 28.925781 18.234375 C 29.277344 18.589844 29.84375 18.589844 30.199219 18.234375 C 30.550781 17.882812 30.550781 17.316406 30.199219 16.960938 L 27.789062 14.554688 C 27.4375 14.199219 26.867188 14.199219 26.515625 14.554688 L 24.105469 16.960938 C 23.933594 17.136719 23.847656 17.367188 23.847656 17.597656 C 23.847656 17.828125 23.933594 18.0625 24.105469 18.234375 C 24.460938 18.589844 25.027344 18.589844 25.378906 18.234375 L 26.253906 17.359375 L 26.253906 23.46875 C 26.253906 23.960938 26.65625 24.367188 27.152344 24.367188 Z M 27.152344 24.367188 " fill-opacity="1" fill-rule="nonzero"/><path fill="#6c0082" d="M 21.601562 26.640625 C 21.953125 26.289062 21.953125 25.722656 21.601562 25.367188 L 17.28125 21.050781 L 18.519531 21.050781 C 19.015625 21.050781 19.417969 20.644531 19.417969 20.152344 C 19.417969 19.652344 19.011719 19.253906 18.519531 19.253906 L 15.109375 19.253906 C 14.613281 19.253906 14.210938 19.660156 14.210938 20.152344 L 14.210938 23.5625 C 14.210938 23.8125 14.316406 24.035156 14.472656 24.199219 C 14.632812 24.359375 14.859375 24.460938 15.109375 24.460938 C 15.605469 24.460938 16.007812 24.054688 16.007812 23.5625 L 16.007812 22.324219 L 20.324219 26.640625 C 20.679688 26.988281 21.246094 26.988281 21.601562 26.640625 Z M 21.601562 26.640625 " fill-opacity="1" fill-rule="nonzero"/><path fill="#6c0082" d="M 35.769531 21.09375 L 37.007812 21.09375 L 32.6875 25.414062 C 32.335938 25.769531 32.335938 26.335938 32.6875 26.6875 C 33.039062 27.042969 33.609375 27.042969 33.960938 26.6875 L 38.28125 22.371094 L 38.28125 23.609375 C 38.28125 24.105469 38.6875 24.507812 39.179688 24.507812 C 39.671875 24.507812 40.074219 24.101562 40.074219 23.609375 L 40.074219 20.199219 C 40.074219 19.699219 39.675781 19.300781 39.179688 19.300781 L 35.769531 19.300781 C 35.519531 19.300781 35.292969 19.398438 35.132812 19.5625 C 34.96875 19.722656 34.863281 19.949219 34.863281 20.199219 C 34.871094 20.691406 35.269531 21.09375 35.769531 21.09375 Z M 35.769531 21.09375 " fill-opacity="1" fill-rule="nonzero"/><g clip-path="url(#037ce49abb)"><path fill="#6c0082" d="M 8.324219 6.949219 C 4.773438 6.949219 1.890625 9.835938 1.890625 13.382812 C 1.890625 16.933594 4.769531 19.816406 8.324219 19.816406 C 11.871094 19.816406 14.757812 16.9375 14.757812 13.382812 C 14.757812 9.835938 11.878906 6.949219 8.324219 6.949219 Z M 8.324219 6.949219 " fill-opacity="1" fill-rule="nonzero"/></g><path fill="#6c0082" d="M 22.585938 11.941406 L 31.726562 11.941406 C 32.496094 11.941406 33.121094 11.316406 33.121094 10.546875 L 33.121094 1.398438 C 33.121094 0.628906 32.496094 0.00390625 31.726562 0.00390625 L 22.585938 0.00390625 C 21.8125 0.00390625 21.1875 0.628906 21.1875 1.398438 L 21.1875 10.539062 C 21.183594 11.308594 21.808594 11.941406 22.585938 11.941406 Z M 22.585938 11.941406 " fill-opacity="1" fill-rule="nonzero"/></svg>