<svg xmlns="http://www.w3.org/2000/svg" xmlns:xlink="http://www.w3.org/1999/xlink" width="74" zoomAndPan="magnify" viewBox="0 0 55.5 55.499996" height="74" preserveAspectRatio="xMidYMid meet" version="1.0"><defs><clipPath id="220cdb23f6"><path d="M 0 0 L 55.003906 0 L 55.003906 55.003906 L 0 55.003906 Z M 0 0 " clip-rule="nonzero"/></clipPath></defs><g clip-path="url(#220cdb23f6)"><path fill="#ffffff" d="M 0 0 L 55.003906 0 L 55.003906 55.003906 L 0 55.003906 Z M 0 0 " fill-opacity="1" fill-rule="nonzero"/><path fill="#ffffff" d="M 0 0 L 55.003906 0 L 55.003906 55.003906 L 0 55.003906 Z M 0 0 " fill-opacity="1" fill-rule="nonzero"/><path fill="#6c0082" d="M 27.503906 55.003906 C 20.15625 55.003906 13.25 52.144531 8.054688 46.949219 C 2.859375 41.753906 0 34.847656 0 27.503906 C 0 20.15625 2.859375 13.25 8.054688 8.054688 C 13.25 2.859375 20.15625 0 27.503906 0 C 34.847656 0 41.753906 2.859375 46.949219 8.054688 C 52.144531 13.25 55.003906 20.15625 55.003906 27.503906 C 55.003906 34.847656 52.144531 41.753906 46.949219 46.949219 C 41.753906 52.144531 34.847656 55.003906 27.503906 55.003906 Z M 27.503906 4.199219 C 14.652344 4.199219 4.199219 14.652344 4.199219 27.503906 C 4.199219 40.351562 14.652344 50.808594 27.503906 50.808594 C 40.351562 50.808594 50.808594 40.351562 50.808594 27.503906 C 50.808594 14.652344 40.351562 4.199219 27.503906 4.199219 Z M 27.503906 4.199219 " fill-opacity="1" fill-rule="nonzero"/></g><path fill="#6c0082" d="M 36.632812 38.121094 C 36.222656 38.121094 35.808594 38.003906 35.445312 37.753906 L 25.222656 30.742188 C 24.648438 30.351562 24.308594 29.703125 24.308594 29.007812 L 24.335938 11.851562 C 24.339844 10.695312 25.277344 9.757812 26.433594 9.757812 C 26.4375 9.757812 26.4375 9.757812 26.4375 9.757812 C 27.597656 9.757812 28.535156 10.699219 28.535156 11.859375 L 28.507812 27.90625 L 37.820312 34.292969 C 38.773438 34.949219 39.019531 36.253906 38.363281 37.210938 C 37.957031 37.800781 37.296875 38.121094 36.632812 38.121094 Z M 36.632812 38.121094 " fill-opacity="1" fill-rule="nonzero"/></svg>