<svg xmlns="http://www.w3.org/2000/svg" xmlns:xlink="http://www.w3.org/1999/xlink" width="74" zoomAndPan="magnify" viewBox="0 0 55.5 55.499996" height="74" preserveAspectRatio="xMidYMid meet" version="1.0"><defs><clipPath id="c34ba4693a"><path d="M 0 0 L 55.003906 0 L 55.003906 55.003906 L 0 55.003906 Z M 0 0 " clip-rule="nonzero"/></clipPath></defs><g clip-path="url(#c34ba4693a)"><path fill="#ffffff" d="M 0 0 L 55.003906 0 L 55.003906 55.003906 L 0 55.003906 Z M 0 0 " fill-opacity="1" fill-rule="nonzero"/><path fill="#ffffff" d="M 0 0 L 55.003906 0 L 55.003906 55.003906 L 0 55.003906 Z M 0 0 " fill-opacity="1" fill-rule="nonzero"/></g><path fill="#6c0082" d="M 28.753906 38.292969 L 26.214844 38.292969 C 25.945312 38.292969 25.679688 38.265625 25.414062 38.214844 C 25.152344 38.160156 24.894531 38.082031 24.648438 37.980469 C 24.398438 37.878906 24.164062 37.753906 23.941406 37.605469 C 23.71875 37.453125 23.511719 37.285156 23.320312 37.09375 C 23.128906 36.90625 22.960938 36.699219 22.8125 36.476562 C 22.660156 36.253906 22.535156 36.015625 22.433594 35.769531 C 22.328125 35.519531 22.25 35.265625 22.199219 35 C 22.144531 34.738281 22.121094 34.472656 22.117188 34.203125 L 22.117188 33.191406 C 22.117188 32.9375 22.210938 32.71875 22.390625 32.539062 C 22.570312 32.359375 22.789062 32.269531 23.042969 32.269531 C 23.300781 32.269531 23.515625 32.359375 23.699219 32.539062 C 23.878906 32.71875 23.96875 32.9375 23.96875 33.191406 L 23.96875 34.203125 C 23.96875 34.5 24.027344 34.785156 24.140625 35.0625 C 24.253906 35.335938 24.417969 35.578125 24.628906 35.789062 C 24.839844 35.996094 25.082031 36.160156 25.355469 36.273438 C 25.628906 36.386719 25.917969 36.441406 26.214844 36.441406 L 28.753906 36.441406 C 29.050781 36.441406 29.335938 36.382812 29.609375 36.269531 C 29.882812 36.15625 30.125 35.996094 30.335938 35.785156 C 30.542969 35.574219 30.707031 35.332031 30.820312 35.058594 C 30.933594 34.785156 30.992188 34.5 30.992188 34.203125 L 30.992188 32.046875 C 30.960938 31.664062 30.828125 31.320312 30.59375 31.019531 C 30.359375 30.714844 30.058594 30.5 29.699219 30.375 L 24.503906 28.375 C 24.15625 28.257812 23.835938 28.089844 23.539062 27.871094 C 23.242188 27.652344 22.988281 27.394531 22.773438 27.09375 C 22.558594 26.792969 22.398438 26.46875 22.285156 26.117188 C 22.171875 25.769531 22.117188 25.410156 22.117188 25.039062 L 22.117188 22.886719 C 22.121094 22.621094 22.144531 22.355469 22.199219 22.089844 C 22.25 21.828125 22.328125 21.570312 22.433594 21.324219 C 22.535156 21.074219 22.660156 20.839844 22.808594 20.617188 C 22.957031 20.394531 23.128906 20.1875 23.316406 19.996094 C 23.507812 19.808594 23.714844 19.636719 23.9375 19.488281 C 24.160156 19.339844 24.394531 19.210938 24.644531 19.109375 C 24.890625 19.007812 25.148438 18.929688 25.410156 18.875 C 25.671875 18.820312 25.9375 18.792969 26.207031 18.792969 L 28.753906 18.792969 C 29.023438 18.792969 29.289062 18.820312 29.550781 18.875 C 29.816406 18.925781 30.070312 19.003906 30.320312 19.109375 C 30.566406 19.210938 30.800781 19.335938 31.027344 19.484375 C 31.25 19.636719 31.457031 19.804688 31.644531 19.996094 C 31.835938 20.1875 32.003906 20.390625 32.152344 20.617188 C 32.300781 20.839844 32.429688 21.074219 32.53125 21.324219 C 32.632812 21.570312 32.710938 21.828125 32.765625 22.089844 C 32.816406 22.355469 32.84375 22.621094 32.84375 22.886719 L 32.84375 23.894531 C 32.84375 24.148438 32.753906 24.367188 32.570312 24.546875 C 32.390625 24.726562 32.171875 24.820312 31.917969 24.820312 C 31.660156 24.820312 31.445312 24.726562 31.261719 24.546875 C 31.082031 24.367188 30.992188 24.148438 30.992188 23.894531 L 30.992188 22.886719 C 30.992188 22.589844 30.9375 22.304688 30.820312 22.03125 C 30.707031 21.757812 30.546875 21.515625 30.335938 21.304688 C 30.128906 21.09375 29.886719 20.929688 29.609375 20.816406 C 29.335938 20.703125 29.050781 20.644531 28.753906 20.644531 L 26.207031 20.644531 C 25.910156 20.644531 25.625 20.703125 25.351562 20.816406 C 25.074219 20.929688 24.832031 21.09375 24.625 21.304688 C 24.414062 21.515625 24.253906 21.757812 24.140625 22.03125 C 24.027344 22.304688 23.96875 22.589844 23.96875 22.886719 L 23.96875 25.039062 C 23.96875 25.410156 24.078125 25.742188 24.296875 26.039062 C 24.515625 26.335938 24.804688 26.539062 25.160156 26.644531 L 30.40625 28.667969 C 30.753906 28.796875 31.074219 28.972656 31.367188 29.199219 C 31.664062 29.425781 31.917969 29.6875 32.136719 29.988281 C 32.351562 30.289062 32.519531 30.613281 32.640625 30.964844 C 32.761719 31.316406 32.828125 31.675781 32.84375 32.046875 L 32.84375 34.203125 C 32.84375 34.472656 32.816406 34.738281 32.765625 35 C 32.710938 35.265625 32.632812 35.519531 32.53125 35.769531 C 32.429688 36.015625 32.300781 36.253906 32.152344 36.476562 C 32.003906 36.699219 31.835938 36.90625 31.644531 37.09375 C 31.457031 37.285156 31.25 37.453125 31.023438 37.601562 C 30.800781 37.753906 30.566406 37.878906 30.320312 37.980469 C 30.070312 38.082031 29.816406 38.160156 29.550781 38.214844 C 29.289062 38.265625 29.023438 38.292969 28.753906 38.292969 Z M 28.753906 38.292969 " fill-opacity="1" fill-rule="nonzero"/><path fill="#6c0082" d="M 27.484375 19.875 C 27.234375 19.867188 27.023438 19.777344 26.847656 19.601562 C 26.671875 19.421875 26.582031 19.210938 26.578125 18.960938 L 26.578125 16.371094 C 26.578125 16.117188 26.667969 15.898438 26.847656 15.714844 C 27.027344 15.535156 27.246094 15.445312 27.503906 15.445312 C 27.757812 15.445312 27.976562 15.535156 28.15625 15.714844 C 28.335938 15.898438 28.425781 16.117188 28.425781 16.371094 L 28.425781 18.960938 C 28.421875 19.21875 28.328125 19.433594 28.144531 19.613281 C 27.960938 19.792969 27.742188 19.878906 27.484375 19.875 Z M 27.484375 19.875 " fill-opacity="1" fill-rule="nonzero"/><path fill="#6c0082" d="M 27.484375 41.535156 C 27.226562 41.535156 27.011719 41.445312 26.828125 41.265625 C 26.648438 41.085938 26.558594 40.867188 26.558594 40.609375 L 26.558594 37.527344 C 26.558594 37.273438 26.648438 37.054688 26.828125 36.875 C 27.011719 36.691406 27.226562 36.601562 27.484375 36.601562 C 27.738281 36.601562 27.957031 36.691406 28.136719 36.875 C 28.320312 37.054688 28.410156 37.273438 28.410156 37.527344 L 28.410156 40.609375 C 28.410156 40.867188 28.320312 41.085938 28.136719 41.265625 C 27.957031 41.445312 27.738281 41.535156 27.484375 41.535156 Z M 27.484375 41.535156 " fill-opacity="1" fill-rule="nonzero"/><path fill="#6c0082" d="M 49.097656 32.527344 L 48.96875 32.527344 C 48.84375 32.511719 48.726562 32.476562 48.621094 32.414062 C 48.511719 32.355469 48.417969 32.273438 48.34375 32.175781 C 48.265625 32.078125 48.214844 31.96875 48.179688 31.847656 C 48.148438 31.730469 48.140625 31.609375 48.160156 31.484375 C 48.328125 30.300781 48.394531 29.109375 48.359375 27.914062 C 48.328125 26.71875 48.191406 25.535156 47.957031 24.359375 C 47.722656 23.1875 47.394531 22.042969 46.964844 20.925781 C 46.539062 19.808594 46.019531 18.734375 45.410156 17.703125 C 44.800781 16.675781 44.109375 15.703125 43.335938 14.789062 C 42.5625 13.878906 41.71875 13.035156 40.800781 12.265625 C 39.886719 11.496094 38.910156 10.808594 37.878906 10.203125 C 36.847656 9.597656 35.773438 9.085938 34.652344 8.660156 C 33.535156 8.238281 32.386719 7.910156 31.210938 7.683594 C 30.039062 7.453125 28.851562 7.324219 27.65625 7.296875 C 26.460938 7.265625 25.269531 7.339844 24.085938 7.511719 C 22.902344 7.683594 21.742188 7.953125 20.605469 8.320312 C 19.464844 8.691406 18.367188 9.152344 17.304688 9.707031 C 16.246094 10.261719 15.242188 10.902344 14.289062 11.625 C 13.335938 12.351562 12.453125 13.148438 11.636719 14.023438 C 10.816406 14.898438 10.082031 15.835938 9.421875 16.832031 C 9.28125 17.046875 9.085938 17.179688 8.835938 17.230469 C 8.585938 17.28125 8.351562 17.238281 8.140625 17.097656 C 7.925781 16.957031 7.792969 16.761719 7.742188 16.511719 C 7.691406 16.261719 7.734375 16.03125 7.875 15.816406 C 8.589844 14.726562 9.390625 13.707031 10.28125 12.757812 C 11.167969 11.804688 12.128906 10.933594 13.164062 10.144531 C 14.199219 9.355469 15.292969 8.660156 16.445312 8.054688 C 17.601562 7.449219 18.796875 6.949219 20.035156 6.546875 C 21.273438 6.144531 22.535156 5.847656 23.824219 5.660156 C 25.109375 5.472656 26.40625 5.394531 27.707031 5.425781 C 29.007812 5.457031 30.296875 5.597656 31.574219 5.84375 C 32.855469 6.09375 34.101562 6.449219 35.320312 6.910156 C 36.535156 7.371094 37.707031 7.929688 38.832031 8.585938 C 39.953125 9.246094 41.011719 9.992188 42.007812 10.832031 C 43.007812 11.667969 43.925781 12.585938 44.765625 13.578125 C 45.609375 14.570312 46.359375 15.628906 47.023438 16.75 C 47.6875 17.867188 48.25 19.035156 48.714844 20.253906 C 49.179688 21.46875 49.539062 22.714844 49.792969 23.992188 C 50.046875 25.269531 50.195312 26.558594 50.230469 27.859375 C 50.265625 29.160156 50.191406 30.453125 50.007812 31.742188 C 49.972656 31.96875 49.871094 32.152344 49.695312 32.300781 C 49.523438 32.449219 49.324219 32.523438 49.097656 32.527344 Z M 49.097656 32.527344 " fill-opacity="1" fill-rule="nonzero"/><path fill="#6c0082" d="M 27.0625 51.554688 C 24.285156 51.558594 21.597656 51.070312 19 50.089844 C 17.785156 49.621094 16.617188 49.058594 15.496094 48.394531 C 14.378906 47.734375 13.320312 46.984375 12.328125 46.144531 C 11.332031 45.304688 10.417969 44.386719 9.578125 43.390625 C 8.738281 42.398438 7.988281 41.34375 7.324219 40.222656 C 6.664062 39.101562 6.101562 37.933594 5.632812 36.71875 C 5.167969 35.503906 4.808594 34.261719 4.550781 32.984375 C 4.292969 31.710938 4.144531 30.421875 4.105469 29.121094 C 4.066406 27.820312 4.132812 26.527344 4.308594 25.238281 C 4.347656 24.984375 4.46875 24.78125 4.671875 24.628906 C 4.875 24.476562 5.105469 24.417969 5.359375 24.453125 C 5.609375 24.488281 5.8125 24.609375 5.96875 24.8125 C 6.121094 25.015625 6.179688 25.246094 6.140625 25.496094 C 5.972656 26.683594 5.902344 27.875 5.933594 29.074219 C 5.964844 30.273438 6.097656 31.460938 6.328125 32.636719 C 6.5625 33.8125 6.890625 34.957031 7.320312 36.078125 C 7.746094 37.199219 8.265625 38.273438 8.875 39.308594 C 9.484375 40.339844 10.175781 41.3125 10.949219 42.226562 C 11.722656 43.140625 12.570312 43.984375 13.488281 44.757812 C 14.402344 45.527344 15.378906 46.21875 16.414062 46.824219 C 17.449219 47.429688 18.523438 47.945312 19.644531 48.371094 C 20.769531 48.792969 21.917969 49.121094 23.09375 49.347656 C 24.269531 49.578125 25.457031 49.707031 26.65625 49.734375 C 27.851562 49.761719 29.046875 49.691406 30.230469 49.515625 C 31.417969 49.339844 32.582031 49.070312 33.71875 48.699219 C 34.859375 48.328125 35.960938 47.863281 37.019531 47.304688 C 38.082031 46.75 39.089844 46.105469 40.042969 45.378906 C 40.992188 44.648438 41.878906 43.847656 42.695312 42.96875 C 43.511719 42.089844 44.246094 41.152344 44.902344 40.148438 C 44.96875 40.042969 45.050781 39.949219 45.152344 39.878906 C 45.253906 39.804688 45.367188 39.753906 45.488281 39.726562 C 45.613281 39.699219 45.734375 39.695312 45.859375 39.71875 C 45.980469 39.738281 46.097656 39.785156 46.199219 39.855469 C 46.304688 39.921875 46.394531 40.007812 46.464844 40.113281 C 46.53125 40.214844 46.578125 40.332031 46.601562 40.453125 C 46.625 40.578125 46.625 40.699219 46.597656 40.820312 C 46.574219 40.945312 46.523438 41.058594 46.453125 41.160156 C 45.390625 42.761719 44.152344 44.207031 42.734375 45.5 C 41.3125 46.792969 39.757812 47.890625 38.066406 48.800781 C 36.375 49.707031 34.597656 50.394531 32.738281 50.859375 C 30.875 51.328125 28.984375 51.558594 27.0625 51.554688 Z M 27.0625 51.554688 " fill-opacity="1" fill-rule="nonzero"/><path fill="#6c0082" d="M 49.011719 34.214844 L 48.972656 34.214844 C 48.65625 34.203125 48.40625 34.066406 48.234375 33.796875 L 43.738281 26.878906 C 43.601562 26.664062 43.558594 26.429688 43.609375 26.183594 C 43.664062 25.933594 43.796875 25.738281 44.011719 25.597656 C 44.226562 25.460938 44.460938 25.417969 44.710938 25.472656 C 44.960938 25.523438 45.152344 25.660156 45.292969 25.875 L 49.074219 31.6875 L 53.214844 26.269531 C 53.371094 26.0625 53.574219 25.945312 53.828125 25.910156 C 54.082031 25.875 54.3125 25.9375 54.515625 26.09375 C 54.71875 26.246094 54.835938 26.453125 54.871094 26.703125 C 54.90625 26.957031 54.84375 27.1875 54.691406 27.390625 L 49.757812 33.859375 C 49.566406 34.101562 49.320312 34.21875 49.011719 34.214844 Z M 49.011719 34.214844 " fill-opacity="1" fill-rule="nonzero"/><path fill="#6c0082" d="M 10.453125 32.347656 C 10.113281 32.34375 9.859375 32.199219 9.679688 31.910156 L 5.863281 26.132812 L 1.746094 31.621094 C 1.675781 31.726562 1.585938 31.816406 1.480469 31.890625 C 1.375 31.960938 1.257812 32.007812 1.128906 32.03125 C 1.003906 32.050781 0.878906 32.046875 0.753906 32.019531 C 0.628906 31.988281 0.515625 31.933594 0.410156 31.859375 C 0.308594 31.78125 0.226562 31.6875 0.164062 31.574219 C 0.0976562 31.460938 0.0625 31.34375 0.046875 31.214844 C 0.0351562 31.085938 0.046875 30.960938 0.0859375 30.839844 C 0.125 30.714844 0.1875 30.605469 0.269531 30.511719 L 5.203125 23.992188 C 5.398438 23.738281 5.65625 23.617188 5.976562 23.628906 C 6.292969 23.636719 6.539062 23.773438 6.714844 24.042969 L 11.222656 30.917969 C 11.421875 31.222656 11.4375 31.539062 11.261719 31.863281 C 11.089844 32.183594 10.820312 32.347656 10.453125 32.347656 Z M 10.453125 32.347656 " fill-opacity="1" fill-rule="nonzero"/></svg>