<svg xmlns="http://www.w3.org/2000/svg" xmlns:xlink="http://www.w3.org/1999/xlink" width="50" zoomAndPan="magnify" viewBox="0 0 55.5 55.499996" height="50" preserveAspectRatio="xMidYMid meet" version="1.0"><defs><clipPath id="eaeea1ab1b"><path d="M 0 0 L 55.003906 0 L 55.003906 55.003906 L 0 55.003906 Z M 0 0 " clip-rule="nonzero"/></clipPath><clipPath id="8b845e4051"><path d="M 0 5.84375 L 55.003906 5.84375 L 55.003906 48.953125 L 0 48.953125 Z M 0 5.84375 " clip-rule="nonzero"/></clipPath></defs><g clip-path="url(#eaeea1ab1b)"><path fill="#ffffff" d="M 0 0 L 55.003906 0 L 55.003906 55.003906 L 0 55.003906 Z M 0 0 " fill-opacity="1" fill-rule="nonzero"/><path fill="#ffffff" d="M 0 0 L 55.003906 0 L 55.003906 55.003906 L 0 55.003906 Z M 0 0 " fill-opacity="1" fill-rule="nonzero"/></g><g clip-path="url(#8b845e4051)"><path fill="#6c0082" d="M 52.25 13.160156 L 40.722656 13.160156 L 40.332031 10.402344 L 40.035156 8.546875 C 39.914062 7.800781 39.515625 7.179688 38.894531 6.660156 C 38.257812 6.128906 37.578125 5.851562 36.828125 5.851562 L 18.085938 5.851562 C 17.335938 5.851562 16.648438 6.121094 16.019531 6.660156 C 15.390625 7.199219 15.054688 7.832031 14.941406 8.546875 L 14.640625 10.402344 L 14.222656 13.160156 L 2.753906 13.160156 C 1.226562 13.160156 0 14.386719 0 15.855469 L 0 46.394531 C 0 47.921875 1.226562 49.148438 2.753906 49.148438 L 52.25 49.148438 C 53.777344 49.148438 55.003906 47.921875 55.003906 46.394531 L 55.003906 15.855469 C 55.003906 14.386719 53.777344 13.160156 52.25 13.160156 Z M 51.679688 45.824219 L 3.292969 45.824219 L 3.292969 16.453125 L 14.222656 16.453125 C 15.871094 16.453125 17.292969 15.226562 17.515625 13.636719 L 17.90625 10.882812 L 18.207031 9.175781 L 36.769531 9.175781 L 37.039062 10.882812 L 37.457031 13.636719 C 37.699219 15.226562 39.136719 16.453125 40.722656 16.453125 L 51.679688 16.453125 Z M 51.679688 45.824219 " fill-opacity="1" fill-rule="nonzero"/></g><path fill="#6c0082" d="M 46.351562 24.265625 C 47.789062 24.265625 48.984375 23.039062 48.984375 21.601562 C 48.984375 20.136719 47.820312 18.90625 46.351562 18.90625 C 44.882812 18.90625 43.714844 20.136719 43.714844 21.601562 C 43.714844 23.039062 44.914062 24.265625 46.351562 24.265625 Z M 46.351562 24.265625 " fill-opacity="1" fill-rule="nonzero"/><path fill="#6c0082" d="M 27.457031 17.320312 C 24.074219 17.320312 21.140625 18.546875 18.714844 20.972656 C 16.289062 23.398438 15.0625 26.332031 15.0625 29.71875 C 15.0625 33.101562 16.289062 36.035156 18.714844 38.460938 C 21.140625 40.886719 24.074219 42.03125 27.457031 42.082031 C 34.164062 42.183594 39.933594 36.363281 39.851562 29.714844 C 39.8125 26.304688 38.625 23.398438 36.199219 20.972656 C 33.773438 18.546875 30.871094 17.320312 27.457031 17.320312 Z M 33.863281 36.15625 C 32.097656 37.921875 29.972656 38.789062 27.457031 38.789062 C 24.972656 38.789062 22.847656 37.921875 21.078125 36.15625 C 19.3125 34.386719 18.445312 32.230469 18.445312 29.714844 C 18.445312 27.230469 19.3125 25.074219 21.078125 23.308594 C 22.847656 21.542969 24.972656 20.644531 27.457031 20.644531 C 29.972656 20.644531 32.097656 21.542969 33.863281 23.308594 C 35.632812 25.074219 36.53125 27.230469 36.53125 29.714844 C 36.53125 32.230469 35.632812 34.386719 33.863281 36.15625 Z M 33.863281 36.15625 " fill-opacity="1" fill-rule="nonzero"/></svg>