<svg xmlns="http://www.w3.org/2000/svg" xmlns:xlink="http://www.w3.org/1999/xlink" width="74" zoomAndPan="magnify" viewBox="0 0 55.5 55.499996" height="74" preserveAspectRatio="xMidYMid meet" version="1.0"><defs><clipPath id="df0c6ed3c4"><path d="M 0 0 L 55.003906 0 L 55.003906 55.003906 L 0 55.003906 Z M 0 0 " clip-rule="nonzero"/></clipPath><clipPath id="518eb8ecef"><path d="M 4.570312 0 L 50.65625 0 L 50.65625 55.003906 L 4.570312 55.003906 Z M 4.570312 0 " clip-rule="nonzero"/></clipPath></defs><g clip-path="url(#df0c6ed3c4)"><path fill="#ffffff" d="M 0 0 L 55.003906 0 L 55.003906 55.003906 L 0 55.003906 Z M 0 0 " fill-opacity="1" fill-rule="nonzero"/><path fill="#ffffff" d="M 0 0 L 55.003906 0 L 55.003906 55.003906 L 0 55.003906 Z M 0 0 " fill-opacity="1" fill-rule="nonzero"/></g><g clip-path="url(#518eb8ecef)"><path fill="#6c0082" d="M 41.25 3.128906 L 47.289062 9.167969 L 44 9.167969 C 42.484375 9.167969 41.25 7.933594 41.25 6.417969 Z M 48.582031 43.085938 C 48.582031 44.601562 47.351562 45.835938 45.832031 45.835938 L 43.082031 45.835938 L 43.082031 17.417969 C 43.082031 17.175781 42.988281 16.941406 42.816406 16.769531 L 33.648438 7.601562 C 33.476562 7.429688 33.242188 7.332031 33 7.332031 L 13.746094 7.332031 L 13.746094 4.582031 C 13.746094 3.066406 14.980469 1.832031 16.496094 1.832031 L 39.417969 1.832031 L 39.417969 6.417969 C 39.417969 8.945312 41.472656 11 44 11 L 48.582031 11 Z M 33.914062 13.75 L 33.914062 10.464844 L 39.953125 16.5 L 36.664062 16.5 C 35.148438 16.5 33.914062 15.269531 33.914062 13.75 Z M 41.25 50.421875 C 41.25 51.9375 40.015625 53.171875 38.5 53.171875 L 9.164062 53.171875 C 7.648438 53.171875 6.414062 51.9375 6.414062 50.421875 L 6.414062 11.917969 C 6.414062 10.402344 7.648438 9.167969 9.164062 9.167969 L 32.082031 9.167969 L 32.082031 13.75 C 32.082031 16.277344 34.136719 18.335938 36.664062 18.335938 L 41.25 18.335938 Z M 40.332031 0 L 16.496094 0 C 13.96875 0 11.914062 2.054688 11.914062 4.582031 L 11.914062 7.332031 L 9.164062 7.332031 C 6.636719 7.332031 4.578125 9.390625 4.578125 11.917969 L 4.578125 50.421875 C 4.578125 52.949219 6.636719 55.003906 9.164062 55.003906 L 38.5 55.003906 C 41.027344 55.003906 43.082031 52.949219 43.082031 50.421875 L 43.082031 47.671875 L 45.832031 47.671875 C 48.359375 47.671875 50.417969 45.613281 50.417969 43.085938 L 50.417969 10.085938 C 50.417969 9.839844 50.320312 9.609375 50.148438 9.4375 L 40.980469 0.269531 C 40.808594 0.0976562 40.574219 0 40.332031 0 " fill-opacity="1" fill-rule="nonzero"/></g><path fill="#6c0082" d="M 20.164062 22 C 19.660156 22 19.246094 22.414062 19.246094 22.917969 C 19.246094 23.425781 19.660156 23.835938 20.164062 23.835938 L 36.664062 23.835938 C 37.171875 23.835938 37.582031 23.425781 37.582031 22.917969 C 37.582031 22.414062 37.171875 22 36.664062 22 L 20.164062 22 " fill-opacity="1" fill-rule="nonzero"/><path fill="#6c0082" d="M 10.996094 29.335938 L 25.664062 29.335938 C 26.171875 29.335938 26.582031 28.925781 26.582031 28.417969 C 26.582031 27.914062 26.171875 27.503906 25.664062 27.503906 L 10.996094 27.503906 C 10.492188 27.503906 10.082031 27.914062 10.082031 28.417969 C 10.082031 28.925781 10.492188 29.335938 10.996094 29.335938 " fill-opacity="1" fill-rule="nonzero"/><path fill="#6c0082" d="M 36.664062 33.003906 L 25.664062 33.003906 C 25.160156 33.003906 24.75 33.414062 24.75 33.917969 C 24.75 34.425781 25.160156 34.835938 25.664062 34.835938 L 36.664062 34.835938 C 37.171875 34.835938 37.582031 34.425781 37.582031 33.917969 C 37.582031 33.414062 37.171875 33.003906 36.664062 33.003906 " fill-opacity="1" fill-rule="nonzero"/><path fill="#6c0082" d="M 10.996094 40.335938 L 27.5 40.335938 C 28.003906 40.335938 28.414062 39.925781 28.414062 39.417969 C 28.414062 38.914062 28.003906 38.503906 27.5 38.503906 L 10.996094 38.503906 C 10.492188 38.503906 10.082031 38.914062 10.082031 39.417969 C 10.082031 39.925781 10.492188 40.335938 10.996094 40.335938 " fill-opacity="1" fill-rule="nonzero"/><path fill="#6c0082" d="M 10.996094 23.835938 L 16.496094 23.835938 C 17.003906 23.835938 17.414062 23.425781 17.414062 22.917969 C 17.414062 22.414062 17.003906 22 16.496094 22 L 10.996094 22 C 10.492188 22 10.082031 22.414062 10.082031 22.917969 C 10.082031 23.425781 10.492188 23.835938 10.996094 23.835938 " fill-opacity="1" fill-rule="nonzero"/><path fill="#6c0082" d="M 36.664062 27.503906 L 29.332031 27.503906 C 28.824219 27.503906 28.414062 27.914062 28.414062 28.417969 C 28.414062 28.925781 28.824219 29.335938 29.332031 29.335938 L 36.664062 29.335938 C 37.171875 29.335938 37.582031 28.925781 37.582031 28.417969 C 37.582031 27.914062 37.171875 27.503906 36.664062 27.503906 " fill-opacity="1" fill-rule="nonzero"/><path fill="#6c0082" d="M 10.996094 34.835938 L 22 34.835938 C 22.503906 34.835938 22.914062 34.425781 22.914062 33.917969 C 22.914062 33.414062 22.503906 33.003906 22 33.003906 L 10.996094 33.003906 C 10.492188 33.003906 10.082031 33.414062 10.082031 33.917969 C 10.082031 34.425781 10.492188 34.835938 10.996094 34.835938 " fill-opacity="1" fill-rule="nonzero"/><path fill="#6c0082" d="M 36.664062 38.503906 L 31.164062 38.503906 C 30.660156 38.503906 30.25 38.914062 30.25 39.417969 C 30.25 39.925781 30.660156 40.335938 31.164062 40.335938 L 36.664062 40.335938 C 37.171875 40.335938 37.582031 39.925781 37.582031 39.417969 C 37.582031 38.914062 37.171875 38.503906 36.664062 38.503906 " fill-opacity="1" fill-rule="nonzero"/><path fill="#6c0082" d="M 16.496094 44.003906 L 10.996094 44.003906 C 10.492188 44.003906 10.082031 44.414062 10.082031 44.921875 C 10.082031 45.425781 10.492188 45.835938 10.996094 45.835938 L 16.496094 45.835938 C 17.003906 45.835938 17.414062 45.425781 17.414062 44.921875 C 17.414062 44.414062 17.003906 44.003906 16.496094 44.003906 " fill-opacity="1" fill-rule="nonzero"/><path fill="#6c0082" d="M 10.996094 18.335938 L 22 18.335938 C 22.503906 18.335938 22.914062 17.925781 22.914062 17.417969 C 22.914062 16.910156 22.503906 16.5 22 16.5 L 10.996094 16.5 C 10.492188 16.5 10.082031 16.910156 10.082031 17.417969 C 10.082031 17.925781 10.492188 18.335938 10.996094 18.335938 " fill-opacity="1" fill-rule="nonzero"/><path fill="#6c0082" d="M 29.332031 44.003906 L 20.164062 44.003906 C 19.660156 44.003906 19.246094 44.414062 19.246094 44.921875 C 19.246094 45.425781 19.660156 45.835938 20.164062 45.835938 L 29.332031 45.835938 C 29.839844 45.835938 30.25 45.425781 30.25 44.921875 C 30.25 44.414062 29.839844 44.003906 29.332031 44.003906 " fill-opacity="1" fill-rule="nonzero"/><path fill="#6c0082" d="M 36.664062 44.003906 L 33 44.003906 C 32.492188 44.003906 32.082031 44.414062 32.082031 44.921875 C 32.082031 45.425781 32.492188 45.835938 33 45.835938 L 36.664062 45.835938 C 37.171875 45.835938 37.582031 45.425781 37.582031 44.921875 C 37.582031 44.414062 37.171875 44.003906 36.664062 44.003906 " fill-opacity="1" fill-rule="nonzero"/></svg>