<svg xmlns="http://www.w3.org/2000/svg" xmlns:xlink="http://www.w3.org/1999/xlink" width="50" zoomAndPan="magnify" viewBox="0 0 55.5 55.499996" height="50" preserveAspectRatio="xMidYMid meet" version="1.0"><defs><clipPath id="967ae35be7"><path d="M 0 0 L 55.003906 0 L 55.003906 55.003906 L 0 55.003906 Z M 0 0 " clip-rule="nonzero"/></clipPath><clipPath id="620a1a6277"><path d="M 10.246094 0 L 44.4375 0 L 44.4375 55.003906 L 10.246094 55.003906 Z M 10.246094 0 " clip-rule="nonzero"/></clipPath></defs><g clip-path="url(#967ae35be7)"><path fill="#ffffff" d="M 0 0 L 55.003906 0 L 55.003906 55.003906 L 0 55.003906 Z M 0 0 " fill-opacity="1" fill-rule="nonzero"/><path fill="#ffffff" d="M 0 0 L 55.003906 0 L 55.003906 55.003906 L 0 55.003906 Z M 0 0 " fill-opacity="1" fill-rule="nonzero"/></g><g clip-path="url(#620a1a6277)"><path fill="#6c0082" d="M 41.121094 8.480469 L 40.8125 8.480469 L 40.8125 3.265625 C 40.8125 2.234375 40.347656 1.335938 39.503906 0.738281 C 38.664062 0.140625 37.660156 0.00390625 36.679688 0.347656 L 13.703125 8.484375 C 11.785156 8.566406 10.253906 10.152344 10.253906 12.089844 L 10.253906 51.394531 C 10.253906 53.382812 11.871094 55.003906 13.863281 55.003906 L 41.121094 55.003906 C 43.113281 55.003906 44.734375 53.382812 44.734375 51.394531 L 44.734375 12.089844 C 44.734375 10.101562 43.113281 8.480469 41.121094 8.480469 Z M 37.25 1.960938 C 37.703125 1.804688 38.128906 1.859375 38.511719 2.136719 C 38.902344 2.410156 39.097656 2.789062 39.097656 3.265625 L 39.097656 8.480469 L 18.84375 8.480469 Z M 43.019531 51.394531 C 43.019531 52.441406 42.167969 53.292969 41.121094 53.292969 L 13.863281 53.292969 C 12.816406 53.292969 11.964844 52.441406 11.964844 51.394531 L 11.964844 12.089844 C 11.964844 11.042969 12.8125 10.191406 13.859375 10.191406 C 13.859375 10.191406 13.859375 10.191406 13.863281 10.191406 C 13.863281 10.191406 13.867188 10.191406 13.867188 10.191406 L 41.121094 10.191406 C 42.167969 10.191406 43.019531 11.042969 43.019531 12.089844 Z M 39.785156 17.6875 C 39.785156 18.160156 39.398438 18.542969 38.929688 18.542969 L 27.28125 18.542969 C 26.808594 18.542969 26.425781 18.160156 26.425781 17.6875 C 26.425781 17.214844 26.808594 16.832031 27.28125 16.832031 L 38.925781 16.832031 C 39.398438 16.832031 39.785156 17.214844 39.785156 17.6875 Z M 26.425781 21.808594 C 26.425781 21.335938 26.808594 20.953125 27.28125 20.953125 L 32.445312 20.953125 C 32.921875 20.953125 33.304688 21.335938 33.304688 21.808594 C 33.304688 22.28125 32.917969 22.664062 32.445312 22.664062 L 27.28125 22.664062 C 26.808594 22.664062 26.425781 22.28125 26.425781 21.808594 Z M 21.917969 15.488281 L 17 15.488281 C 16.007812 15.488281 15.199219 16.296875 15.199219 17.289062 L 15.199219 22.207031 C 15.199219 23.199219 16.007812 24.003906 17 24.003906 L 21.917969 24.003906 C 22.914062 24.003906 23.71875 23.199219 23.71875 22.207031 L 23.71875 17.289062 C 23.71875 16.296875 22.914062 15.488281 21.917969 15.488281 Z M 22.007812 22.207031 C 22.007812 22.253906 21.96875 22.292969 21.921875 22.292969 L 17.003906 22.292969 C 16.953125 22.292969 16.914062 22.253906 16.914062 22.207031 L 16.914062 17.289062 C 16.914062 17.242188 16.957031 17.199219 17.003906 17.199219 L 21.921875 17.199219 C 21.96875 17.199219 22.007812 17.242188 22.007812 17.289062 Z M 21.917969 27.484375 L 17 27.484375 C 16.007812 27.484375 15.199219 28.292969 15.199219 29.28125 L 15.199219 34.203125 C 15.199219 35.195312 16.007812 36 17 36 L 21.917969 36 C 22.914062 36 23.71875 35.195312 23.71875 34.203125 L 23.71875 29.28125 C 23.71875 28.292969 22.914062 27.484375 21.917969 27.484375 Z M 22.007812 34.203125 C 22.007812 34.25 21.964844 34.289062 21.921875 34.289062 L 17.003906 34.289062 C 16.957031 34.289062 16.914062 34.246094 16.914062 34.203125 L 16.914062 29.28125 C 16.914062 29.238281 16.953125 29.199219 17.003906 29.199219 L 21.921875 29.199219 C 21.96875 29.199219 22.007812 29.238281 22.007812 29.28125 Z M 21.917969 39.480469 L 17 39.480469 C 16.007812 39.480469 15.199219 40.285156 15.199219 41.28125 L 15.199219 46.199219 C 15.199219 47.191406 16.007812 48 17 48 L 21.917969 48 C 22.914062 48 23.71875 47.191406 23.71875 46.199219 L 23.71875 41.28125 C 23.71875 40.285156 22.914062 39.480469 21.917969 39.480469 Z M 22.007812 46.199219 C 22.007812 46.246094 21.96875 46.285156 21.921875 46.285156 L 17.003906 46.285156 C 16.957031 46.285156 16.914062 46.246094 16.914062 46.199219 L 16.914062 41.28125 C 16.914062 41.234375 16.957031 41.191406 17.003906 41.191406 L 21.921875 41.191406 C 21.96875 41.191406 22.007812 41.234375 22.007812 41.28125 Z M 39.785156 29.679688 C 39.785156 30.152344 39.398438 30.535156 38.929688 30.535156 L 27.28125 30.535156 C 26.808594 30.535156 26.425781 30.152344 26.425781 29.679688 C 26.425781 29.207031 26.808594 28.824219 27.28125 28.824219 L 38.925781 28.824219 C 39.398438 28.824219 39.785156 29.207031 39.785156 29.679688 Z M 26.425781 33.808594 C 26.425781 33.335938 26.808594 32.953125 27.28125 32.953125 L 32.445312 32.953125 C 32.921875 32.953125 33.304688 33.335938 33.304688 33.808594 C 33.304688 34.28125 32.917969 34.664062 32.445312 34.664062 L 27.28125 34.664062 C 26.808594 34.664062 26.425781 34.28125 26.425781 33.808594 Z M 39.785156 41.675781 C 39.785156 42.152344 39.398438 42.53125 38.929688 42.53125 L 27.28125 42.53125 C 26.808594 42.53125 26.425781 42.148438 26.425781 41.675781 C 26.425781 41.203125 26.808594 40.820312 27.28125 40.820312 L 38.925781 40.820312 C 39.398438 40.820312 39.785156 41.203125 39.785156 41.675781 Z M 33.304688 45.800781 C 33.304688 46.273438 32.917969 46.65625 32.445312 46.65625 L 27.28125 46.65625 C 26.808594 46.65625 26.425781 46.273438 26.425781 45.800781 C 26.425781 45.328125 26.808594 44.945312 27.28125 44.945312 L 32.445312 44.945312 C 32.921875 44.945312 33.304688 45.328125 33.304688 45.800781 Z M 33.304688 45.800781 " fill-opacity="1" fill-rule="nonzero"/></g></svg>