<svg xmlns="http://www.w3.org/2000/svg" xmlns:xlink="http://www.w3.org/1999/xlink" width="50" zoomAndPan="magnify" viewBox="0 0 55.5 55.499996" height="50" preserveAspectRatio="xMidYMid meet" version="1.0"><defs><clipPath id="74dc00b1ae"><path d="M 0 0 L 55.003906 0 L 55.003906 55.003906 L 0 55.003906 Z M 0 0 " clip-rule="nonzero"/></clipPath><clipPath id="b727034afb"><path d="M 42 34 L 49 34 L 49 40.855469 L 42 40.855469 Z M 42 34 " clip-rule="nonzero"/></clipPath><clipPath id="e8f3dff008"><path d="M 19 34 L 26 34 L 26 40.855469 L 19 40.855469 Z M 19 34 " clip-rule="nonzero"/></clipPath><clipPath id="246be38474"><path d="M 10 14.09375 L 42 14.09375 L 42 38 L 10 38 Z M 10 14.09375 " clip-rule="nonzero"/></clipPath></defs><g clip-path="url(#74dc00b1ae)"><path fill="#ffffff" d="M 0 0 L 55.003906 0 L 55.003906 55.003906 L 0 55.003906 Z M 0 0 " fill-opacity="1" fill-rule="nonzero"/><path fill="#ffffff" d="M 0 0 L 55.003906 0 L 55.003906 55.003906 L 0 55.003906 Z M 0 0 " fill-opacity="1" fill-rule="nonzero"/></g><path fill="#6c0082" d="M 50.242188 19.554688 L 41.808594 19.554688 L 38.585938 37.011719 L 40.75 37.011719 C 40.84375 36.550781 41 36.109375 41.21875 35.691406 C 41.785156 34.601562 42.648438 33.855469 43.8125 33.460938 C 44.363281 33.269531 44.925781 33.191406 45.507812 33.234375 C 46.085938 33.277344 46.632812 33.433594 47.148438 33.707031 C 47.765625 34.039062 48.265625 34.5 48.65625 35.085938 C 49.042969 35.671875 49.273438 36.3125 49.34375 37.011719 L 52.429688 37.011719 L 54.984375 26.734375 Z M 42.859375 25.800781 L 43.671875 21.371094 L 49.035156 21.371094 L 51.960938 25.792969 Z M 42.859375 25.800781 " fill-opacity="1" fill-rule="nonzero"/><g clip-path="url(#b727034afb)"><path fill="#6c0082" d="M 46.496094 34.949219 C 46.09375 34.738281 45.664062 34.632812 45.210938 34.632812 C 44.886719 34.632812 44.574219 34.683594 44.269531 34.785156 C 43.457031 35.066406 42.851562 35.589844 42.453125 36.351562 C 42.300781 36.699219 42.21875 37.0625 42.210938 37.445312 C 42.199219 37.824219 42.261719 38.191406 42.394531 38.546875 C 42.527344 38.902344 42.726562 39.21875 42.984375 39.5 C 43.242188 39.777344 43.542969 39.996094 43.886719 40.160156 C 44.230469 40.320312 44.59375 40.410156 44.972656 40.429688 C 45.351562 40.449219 45.71875 40.398438 46.078125 40.273438 C 46.4375 40.148438 46.761719 39.960938 47.046875 39.710938 C 47.332031 39.460938 47.558594 39.164062 47.730469 38.824219 C 47.898438 38.484375 48 38.125 48.027344 37.746094 C 48.058594 37.367188 48.015625 36.996094 47.898438 36.636719 C 47.785156 36.273438 47.605469 35.945312 47.363281 35.65625 C 47.117188 35.363281 46.828125 35.128906 46.496094 34.949219 Z M 46.496094 34.949219 " fill-opacity="1" fill-rule="nonzero"/></g><g clip-path="url(#e8f3dff008)"><path fill="#6c0082" d="M 23.46875 34.949219 C 23.066406 34.738281 22.636719 34.632812 22.183594 34.632812 C 21.863281 34.632812 21.550781 34.683594 21.242188 34.785156 C 20.429688 35.066406 19.824219 35.589844 19.425781 36.351562 C 19.273438 36.699219 19.195312 37.0625 19.183594 37.445312 C 19.171875 37.824219 19.234375 38.191406 19.371094 38.546875 C 19.503906 38.902344 19.699219 39.21875 19.957031 39.5 C 20.214844 39.777344 20.515625 39.996094 20.859375 40.160156 C 21.203125 40.320312 21.566406 40.410156 21.945312 40.429688 C 22.324219 40.449219 22.695312 40.398438 23.054688 40.273438 C 23.410156 40.148438 23.734375 39.960938 24.019531 39.710938 C 24.304688 39.460938 24.53125 39.164062 24.703125 38.824219 C 24.875 38.484375 24.972656 38.125 25.003906 37.746094 C 25.03125 37.367188 24.988281 36.996094 24.875 36.636719 C 24.757812 36.273438 24.578125 35.945312 24.335938 35.65625 C 24.09375 35.363281 23.804688 35.128906 23.46875 34.949219 Z M 23.46875 34.949219 " fill-opacity="1" fill-rule="nonzero"/></g><g clip-path="url(#246be38474)"><path fill="#6c0082" d="M 14.921875 14.195312 L 14.320312 17.484375 L 16.4375 17.484375 C 16.632812 17.484375 16.796875 17.554688 16.933594 17.691406 C 17.070312 17.828125 17.140625 17.992188 17.140625 18.1875 C 17.140625 18.382812 17.070312 18.546875 16.933594 18.683594 C 16.796875 18.820312 16.632812 18.890625 16.4375 18.890625 L 14.058594 18.890625 L 13.535156 21.765625 L 19.140625 21.765625 C 19.332031 21.765625 19.5 21.835938 19.636719 21.972656 C 19.773438 22.109375 19.839844 22.273438 19.839844 22.46875 C 19.839844 22.660156 19.773438 22.828125 19.636719 22.964844 C 19.5 23.101562 19.332031 23.167969 19.140625 23.167969 L 13.273438 23.167969 L 12.796875 25.75 L 16.753906 25.75 C 16.949219 25.75 17.113281 25.820312 17.25 25.957031 C 17.386719 26.09375 17.457031 26.257812 17.457031 26.453125 C 17.457031 26.644531 17.386719 26.8125 17.25 26.949219 C 17.113281 27.085938 16.949219 27.152344 16.753906 27.152344 L 12.542969 27.152344 L 12.128906 29.390625 L 14.257812 29.390625 C 14.449219 29.390625 14.617188 29.460938 14.753906 29.597656 C 14.890625 29.734375 14.957031 29.898438 14.957031 30.09375 C 14.957031 30.289062 14.890625 30.453125 14.753906 30.589844 C 14.617188 30.726562 14.449219 30.796875 14.257812 30.796875 L 11.878906 30.796875 L 10.742188 37.011719 L 17.722656 37.011719 C 17.816406 36.550781 17.972656 36.109375 18.191406 35.691406 C 18.757812 34.601562 19.625 33.855469 20.789062 33.460938 C 21.335938 33.269531 21.902344 33.191406 22.484375 33.234375 C 23.0625 33.277344 23.613281 33.433594 24.128906 33.707031 C 24.742188 34.042969 25.246094 34.503906 25.632812 35.085938 C 26.023438 35.671875 26.25 36.3125 26.324219 37.011719 L 37.164062 37.011719 L 41.351562 14.195312 Z M 14.921875 14.195312 " fill-opacity="1" fill-rule="nonzero"/></g><path fill="#6c0082" d="M 14.320312 17.484375 L 14.058594 18.890625 L 8.132812 18.890625 C 7.9375 18.890625 7.773438 18.820312 7.636719 18.683594 C 7.5 18.546875 7.429688 18.382812 7.429688 18.1875 C 7.429688 17.992188 7.5 17.828125 7.636719 17.691406 C 7.773438 17.554688 7.9375 17.484375 8.132812 17.484375 Z M 14.320312 17.484375 " fill-opacity="1" fill-rule="nonzero"/><path fill="#6c0082" d="M 13.535156 21.765625 L 13.273438 23.167969 L 0.667969 23.167969 C 0.472656 23.167969 0.308594 23.101562 0.171875 22.964844 C 0.0351562 22.828125 -0.0351562 22.660156 -0.0351562 22.46875 C -0.0351562 22.273438 0.0351562 22.109375 0.171875 21.972656 C 0.308594 21.835938 0.472656 21.765625 0.667969 21.765625 Z M 13.535156 21.765625 " fill-opacity="1" fill-rule="nonzero"/><path fill="#6c0082" d="M 12.796875 25.75 L 12.542969 27.152344 L 3.726562 27.152344 C 3.53125 27.152344 3.367188 27.085938 3.230469 26.949219 C 3.09375 26.8125 3.023438 26.644531 3.023438 26.453125 C 3.023438 26.257812 3.09375 26.09375 3.230469 25.957031 C 3.367188 25.820312 3.53125 25.75 3.726562 25.75 Z M 12.796875 25.75 " fill-opacity="1" fill-rule="nonzero"/><path fill="#6c0082" d="M 12.128906 29.390625 L 11.996094 30.121094 C 11.996094 30.15625 11.992188 30.1875 11.984375 30.21875 L 11.878906 30.796875 L 7.4375 30.796875 C 7.242188 30.796875 7.078125 30.726562 6.941406 30.589844 C 6.804688 30.453125 6.734375 30.289062 6.734375 30.09375 C 6.734375 29.898438 6.804688 29.734375 6.941406 29.597656 C 7.078125 29.460938 7.242188 29.390625 7.4375 29.390625 Z M 12.128906 29.390625 " fill-opacity="1" fill-rule="nonzero"/></svg>